<?xml version="1.0" encoding="UTF-8"?>
<svg id="Capa_1" data-name="Capa 1" xmlns="http://www.w3.org/2000/svg" viewBox="0 0 979.43 285.99">
  <defs>
    <style>
      .cls-1 {
        fill: #fff;
      }
    </style>
  </defs>
  <path class="cls-1" d="M437.32,142.19c-5.59-5.12-12.11-9.32-20.02-8.85-13.51.93-21.89,14.9-34.93,28.87-73.11,79.16-88.01,74.04-81.96,52.62,10.71-37.72,62.86-101.05,105.24-101.05,19.56,0,11.64,13.97,22.35,16.76,2.79.93,6.98,1.4,10.71-.93,2.79-1.86,4.66-8.85,4.66-12.57,0-15.83-24.68-21.89-49.83-21.42-8.38,0-19.56,1.4-30.27,4.19-73.11,20.02-131.32,118.28-123.87,159.73,2.33,12.57,38.19,34.92,125.73-60.54-13.51,20.02-15.83,67.99,13.04,76.37,5.59,1.4,12.57,2.79,13.04-3.26.93-13.5,5.12-29.34,16.3-53.55,7.45-16.3,20.95-37.25,30.27-51.69,3.26-5.12,6.52-18.16-.46-24.68ZM199.86,29.5c13.97-.93,22.82-.93,37.25-1.86,6.52-.46,14.44-16.3,2.33-15.83-20.02.93-29.8.93-50.29.47-4.19,0-7.45-2.33-8.85-4.66-2.33-2.79-8.38-5.59-12.57-6.52-13.51-3.26-27.01,1.4-33.06,5.59-4.65,3.26-11.18,4.19-15.37,4.19-42.38-.93-42.84-1.4-86.15-6.99-13.51-1.86-19.56,5.59-20.02,13.51-.47,6.52,7.92,13.97,13.04,14.9,7.45,1.86,18.63,1.86,29.8,1.4,15.37-.46,32.6-.46,56.81-.93-1.86,2.79-6.05,8.85-6.98,9.78C70.4,90.5-12.02,205.52,1.48,256.75c1.4,4.66,6.52,18.16,19.09,24.21,6.98,3.26,8.85-2.33,8.85-6.05,0-6.98.47-9.31,3.73-18.16,14.44-41.45,91.74-173.7,134.58-218.86,7.45-7.92,20.95-7.92,32.13-8.38ZM270.63,139.4c2.33-.93,5.13-3.73,6.98-6.98,4.66-9.32,5.59-17.23.47-25.15-7.92-12.11-31.2,1.4-51.22,20.49-13.5,13.04-32.6,34.92-53.55,62.4,25.15-38.65,44.24-62.4,44.7-76.37.47-5.59-5.12-11.18-9.78-14.44-13.97-8.84-22.82-3.26-28.87,6.06-23.29,35.86-64.73,102.91-78.23,128.06-7.45,14.44-8.38,21.89,1.86,31.67,7.92,7.45,26.54,7.45,30.73.47,4.19-6.52,12.57-20.02,24.68-37.72,39.58-57.28,63.8-76.37,82.89-88.48,17.23-11.18,20.95,4.19,29.34,0ZM561.64,117.05c11.64.47,7.45,17.23,20.95,17.7,6.98,0,10.24-6.05,10.24-13.04,0-17.7-35.86-25.61-48.89-25.61-32.6,0-68.92,17.23-69.39,86.15,0,65.19-3.26,87.08-28.87,64.26-13.97-12.11-22.35,1.4-12.57,13.97,5.12,6.05,15.37,12.57,22.82,13.97,51.69,8.38,59.14-37.72,61.94-50.29,13.04-58.67,10.71-108.97,43.77-107.1ZM930.53,96.09c-32.59,0-68.92,17.23-69.39,86.15,0,65.19-3.26,87.08-28.87,64.26-13.97-12.11-22.35,1.4-12.57,13.97,5.12,6.05,15.37,12.57,22.82,13.97,51.69,8.38,59.14-37.72,61.94-50.29,13.04-58.67,10.71-108.97,43.77-107.1,11.64.47,7.45,17.23,20.95,17.7,6.98,0,10.24-6.05,10.24-13.04,0-17.7-35.86-25.61-48.89-25.61ZM719.62,118.44c7.45-.47,14.43-15.83,4.65-15.83h-35.86c8.85-12.57,25.62-36.79,42.38-54.48,2.8-2.79,3.26-6.98.47-9.78-3.73-3.26-9.32-6.99-22.82-6.52-28.87.93-53.09,40.51-75.91,69.39-12.57,0-19.09-.93-27.47-2.79-5.59-1.4-5.59,8.38-4.19,13.04,3.26,10.71,16.3,7.92,20.02,7.92-15.37,24.68-31.2,47.03-44.7,72.64-22.35,41.91-16.76,60.07-14.9,68.45,3.73,17.23,14.9,23.28,18.16,24.68,7.92,3.26,7.45-3.72,7.92-8.84.93-13.04,23.29-54.95,33.53-71.25,16.76-27.48,29.34-47.96,54.95-85.68,22.35-.47,32.13,0,43.77-.93ZM794.11,221.82c-50.76,36.79-101.05,42.37-57.74-32.6,52.62,6.05,110.83-36.32,111.3-70.32,0-17.23-12.11-24.21-27.95-23.75-42.84.47-82.88,27.48-112.23,58.67-17.69,19.09-45.17,54.95-44.23,91.27.46,24.68,17.7,31.67,38.18,31.2,21.88-.47,47.97-10.71,61.47-18.16,16.3-8.85,29.34-19.09,39.58-26.54,4.66-3.73,6.98-7.92,3.26-12.11-3.26-2.79-9.31.47-11.64,2.33ZM824.84,117.51c10.24,11.18-49.83,60.54-81.03,56.81,21.88-33.99,70.32-68.45,81.03-56.81Z"/>
</svg>